<svg width="40" height="40" viewBox="0 0 40 40" fill="none" xmlns="http://www.w3.org/2000/svg">
<g clip-path="url(#clip0_423_2333)">
<path d="M19.9997 3.3335C29.2047 3.3335 36.6663 10.7952 36.6663 20.0002C36.6663 29.2052 29.2047 36.6668 19.9997 36.6668C10.7947 36.6668 3.33301 29.2052 3.33301 20.0002C3.33301 10.7952 10.7947 3.3335 19.9997 3.3335ZM19.9997 25.0002C19.5576 25.0002 19.1337 25.1758 18.8212 25.4883C18.5086 25.8009 18.333 26.2248 18.333 26.6668C18.333 27.1089 18.5086 27.5328 18.8212 27.8453C19.1337 28.1579 19.5576 28.3335 19.9997 28.3335C20.4417 28.3335 20.8656 28.1579 21.1782 27.8453C21.4907 27.5328 21.6663 27.1089 21.6663 26.6668C21.6663 26.2248 21.4907 25.8009 21.1782 25.4883C20.8656 25.1758 20.4417 25.0002 19.9997 25.0002ZM19.9997 10.0002C19.5915 10.0002 19.1974 10.1501 18.8924 10.4214C18.5873 10.6926 18.3924 11.0664 18.3447 11.4718L18.333 11.6668V21.6668C18.3335 22.0916 18.4961 22.5002 18.7878 22.8091C19.0794 23.118 19.4779 23.3039 19.902 23.3288C20.3261 23.3537 20.7436 23.2157 21.0694 22.9431C21.3952 22.6704 21.6045 22.2837 21.6547 21.8618L21.6663 21.6668V11.6668C21.6663 11.2248 21.4907 10.8009 21.1782 10.4883C20.8656 10.1758 20.4417 10.0002 19.9997 10.0002Z" fill="#F2635F"/>
</g>
<defs>
<clipPath id="clip0_423_2333">
<rect width="40" height="40" fill="white"/>
</clipPath>
</defs>
</svg>
